<svg xmlns="http://www.w3.org/2000/svg" version="1.1" xmlns:xlink="http://www.w3.org/1999/xlink" xmlns:svgjs="http://svgjs.dev/svgjs" width="1000" height="625" viewBox="0 0 1000 625"><g transform="matrix(1,0,0,1,0,0)"><svg viewBox="0 0 512 320" data-background-color="#ed536d" preserveAspectRatio="xMidYMid meet" height="625" width="1000" xmlns="http://www.w3.org/2000/svg" xmlns:xlink="http://www.w3.org/1999/xlink"><g id="tight-bounds" transform="matrix(1,0,0,1,0,0)"><svg viewBox="0 0 512 320" height="320" width="512"><g><svg></svg></g><g><svg viewBox="0 0 512 320" height="320" width="512"><g><path xmlns="http://www.w3.org/2000/svg" d="M96 160c0-88.366 71.634-160 160-160 88.366 0 160 71.634 160 160 0 88.366-71.634 160-160 160-88.366 0-160-71.634-160-160zM256 313.257c84.642 0 153.257-68.616 153.257-153.257 0-84.642-68.616-153.257-153.257-153.257-84.642 0-153.257 68.616-153.257 153.257 0 84.642 68.616 153.257 153.257 153.257z" fill="#ffffff" fill-rule="nonzero" stroke="none" stroke-width="1" stroke-linecap="butt" stroke-linejoin="miter" stroke-miterlimit="10" stroke-dasharray="" stroke-dashoffset="0" font-family="none" font-weight="none" font-size="none" text-anchor="none" style="mix-blend-mode: normal" data-fill-palette-color="tertiary"></path></g><g transform="matrix(1,0,0,1,128,141.30737134909597)"><svg viewBox="0 0 256 37.38525730180807" height="37.38525730180807" width="256"><g><svg viewBox="0 0 256 37.38525730180807" height="37.38525730180807" width="256"><g><svg viewBox="0 0 256 37.38525730180807" height="37.38525730180807" width="256"><g><svg viewBox="0 0 256 37.38525730180807" height="37.38525730180807" width="256"><g><svg viewBox="0 0 256 37.38525730180807" height="37.38525730180807" width="256"><g><svg viewBox="0 0 256 37.38525730180807" height="37.38525730180807" width="256"><g transform="matrix(1,0,0,1,0,0)"><svg width="256" viewBox="-2.049999952316284 -47 323.5199890136719 47.25" height="37.38525730180807" data-palette-color="#ffffff"><path d="M38.7-11.15Q39.35-11.15 39.73-10.55 40.1-9.95 40.1-8.9L40.1-8.9Q40.1-6.95 39.15-5.8L39.15-5.8Q36.35-2.45 33.73-1.1 31.1 0.25 27.4 0.25L27.4 0.25Q24.8 0.25 22.6-0.4 20.4-1.05 17.25-2.35L17.25-2.35Q14.4-3.6 11.75-4.4L11.75-4.4Q9.2 0.25 4.1 0.25L4.1 0.25Q1.3 0.25-0.38-1.03-2.05-2.3-2.05-4.3L-2.05-4.3Q-2.05-6.75 0.3-8.38 2.65-10 6.55-10L6.55-10 7.2-10 8.1-24.55Q8.4-29.55 9.9-32.8 11.4-36.05 14.05-38.35L14.05-38.35Q16.35-40.35 19.3-41.38 22.25-42.4 25.55-42.4L25.55-42.4Q30.95-42.4 33.85-39.6 36.75-36.8 36.75-32.3L36.75-32.3Q36.75-29.25 35.65-27.38 34.55-25.5 32.6-25.5L32.6-25.5Q31.2-25.5 30.4-26.18 29.6-26.85 29.6-28.1L29.6-28.1Q29.6-28.55 29.8-29.75L29.8-29.75Q30.1-31.15 30.1-32.25L30.1-32.25Q30.1-34.35 28.88-35.58 27.65-36.8 25.15-36.8L25.15-36.8Q20.75-36.8 18.35-33.93 15.95-31.05 15.3-24.9L15.3-24.9 14.15-13.55Q13.9-11.15 13.5-9.4L13.5-9.4Q16.7-8.85 21.5-7.65L21.5-7.65Q24.3-6.95 25.8-6.65 27.3-6.35 28.45-6.35L28.45-6.35Q31.35-6.35 33.43-7.33 35.5-8.3 37.35-10.45L37.35-10.45Q37.95-11.15 38.7-11.15L38.7-11.15ZM41.15 0.25Q38.9 0.25 37.47-1.83 36.05-3.9 36.05-7L36.05-7Q36.05-10.75 36.55-13.88 37.05-17 38.2-20.5L38.2-20.5Q38.7-22 39.6-22.65 40.5-23.3 42.45-23.3L42.45-23.3Q43.55-23.3 43.97-22.95 44.4-22.6 44.4-21.9L44.4-21.9Q44.4-21.5 43.85-19.2L43.85-19.2Q43.35-17.35 43.05-15.85L43.05-15.85Q42.05-10.6 42.05-8.85L42.05-8.85Q42.05-7.8 42.3-7.38 42.55-6.95 43.1-6.95L43.1-6.95Q43.85-6.95 44.97-8.45 46.1-9.95 47.37-13 48.65-16.05 49.85-20.5L49.85-20.5Q50.25-22 51.07-22.65 51.9-23.3 53.55-23.3L53.55-23.3Q54.7-23.3 55.15-23.03 55.6-22.75 55.6-22L55.6-22Q55.6-20.75 54.35-15.15L54.35-15.15Q52.95-8.75 52.95-7.25L52.95-7.25Q52.95-6.3 53.35-5.78 53.75-5.25 54.4-5.25L54.4-5.25Q55.4-5.25 56.77-6.48 58.15-7.7 60.45-10.45L60.45-10.45Q61.05-11.15 61.8-11.15L61.8-11.15Q62.45-11.15 62.82-10.55 63.2-9.95 63.2-8.9L63.2-8.9Q63.2-6.9 62.25-5.8L62.25-5.8Q60.1-3.15 57.62-1.45 55.15 0.25 52 0.25L52 0.25Q49.6 0.25 48.47-1.6 47.35-3.45 47.35-6.8L47.35-6.8Q46.5-3.4 44.8-1.58 43.1 0.25 41.15 0.25L41.15 0.25ZM68.7 0.25Q63.8 0.25 61.07-2.53 58.35-5.3 58.35-9.85L58.35-9.85Q58.35-13.9 59.95-16.95 61.55-20 64.09-21.65 66.65-23.3 69.45-23.3L69.45-23.3Q72.2-23.3 73.72-21.68 75.25-20.05 75.25-17.5L75.25-17.5Q75.25-15.4 74.32-13.95 73.4-12.5 71.9-12.5L71.9-12.5Q70.95-12.5 70.37-12.95 69.8-13.4 69.8-14.2L69.8-14.2Q69.8-14.55 69.9-15 70-15.45 70.05-15.65L70.05-15.65Q70.3-16.4 70.3-17.05L70.3-17.05Q70.3-17.7 69.97-18.05 69.65-18.4 69.05-18.4L69.05-18.4Q67.9-18.4 66.9-17.38 65.9-16.35 65.3-14.6 64.7-12.85 64.7-10.75L64.7-10.75Q64.7-4.95 69.75-4.95L69.75-4.95Q71.8-4.95 74.17-6.33 76.55-7.7 78.84-10.45L78.84-10.45Q79.45-11.15 80.2-11.15L80.2-11.15Q80.84-11.15 81.22-10.55 81.59-9.95 81.59-8.9L81.59-8.9Q81.59-7 80.65-5.8L80.65-5.8Q78.3-2.9 75.02-1.33 71.75 0.25 68.7 0.25L68.7 0.25ZM84.09-26.6Q81.99-26.6 80.94-27.58 79.89-28.55 79.89-30.3L79.89-30.3Q79.89-32.05 81.27-33.23 82.64-34.4 84.69-34.4L84.69-34.4Q86.54-34.4 87.69-33.5 88.84-32.6 88.84-30.95L88.84-30.95Q88.84-28.95 87.54-27.78 86.24-26.6 84.09-26.6L84.09-26.6ZM83.69 0.25Q80.44 0.25 78.97-2.05 77.49-4.35 77.49-8.15L77.49-8.15Q77.49-10.4 78.07-13.93 78.64-17.45 79.54-20.5L79.54-20.5Q79.99-22.1 80.74-22.7 81.49-23.3 83.14-23.3L83.14-23.3Q85.69-23.3 85.69-21.6L85.69-21.6Q85.69-20.35 84.74-15.8L84.74-15.8Q83.54-10.3 83.54-8.35L83.54-8.35Q83.54-6.85 83.94-6.05 84.34-5.25 85.29-5.25L85.29-5.25Q86.19-5.25 87.54-6.5 88.89-7.75 91.14-10.45L91.14-10.45Q91.74-11.15 92.49-11.15L92.49-11.15Q93.14-11.15 93.52-10.55 93.89-9.95 93.89-8.9L93.89-8.9Q93.89-6.9 92.94-5.8L92.94-5.8Q87.99 0.25 83.69 0.25L83.69 0.25ZM95.99 0.25Q92.89 0.25 91.04-2 89.19-4.25 89.19-7.9L89.19-7.9Q89.19-11.9 91.04-15.48 92.89-19.05 95.97-21.23 99.04-23.4 102.49-23.4L102.49-23.4Q103.59-23.4 103.97-22.98 104.34-22.55 104.59-21.45L104.59-21.45Q105.64-21.65 106.79-21.65L106.79-21.65Q109.24-21.65 109.24-19.9L109.24-19.9Q109.24-18.85 108.49-14.9L108.49-14.9Q107.34-9.15 107.34-6.9L107.34-6.9Q107.34-6.15 107.72-5.7 108.09-5.25 108.69-5.25L108.69-5.25Q109.64-5.25 110.99-6.48 112.34-7.7 114.64-10.45L114.64-10.45Q115.24-11.15 115.99-11.15L115.99-11.15Q116.64-11.15 117.02-10.55 117.39-9.95 117.39-8.9L117.39-8.9Q117.39-6.9 116.44-5.8L116.44-5.8Q114.39-3.25 112.09-1.5 109.79 0.25 107.64 0.25L107.64 0.25Q105.99 0.25 104.62-0.88 103.24-2 102.54-3.95L102.54-3.95Q99.94 0.25 95.99 0.25L95.99 0.25ZM97.79-4.8Q98.89-4.8 99.89-6.1 100.89-7.4 101.34-9.55L101.34-9.55 103.19-18.75Q101.09-18.7 99.32-17.18 97.54-15.65 96.49-13.15 95.44-10.65 95.44-7.85L95.44-7.85Q95.44-6.3 96.07-5.55 96.69-4.8 97.79-4.8L97.79-4.8ZM116.89 0.25Q114.99 0.25 114.21-1.75 113.44-3.75 113.44-8.15L113.44-8.15Q113.44-14.65 115.29-20.5L115.29-20.5Q115.74-21.95 116.76-22.63 117.79-23.3 119.64-23.3L119.64-23.3Q120.64-23.3 121.04-23.05 121.44-22.8 121.44-22.1L121.44-22.1Q121.44-21.3 120.69-18.5L120.69-18.5Q120.19-16.5 119.89-15 119.59-13.5 119.39-11.3L119.39-11.3Q121.04-15.6 123.09-18.3 125.14-21 127.11-22.15 129.09-23.3 130.74-23.3L130.74-23.3Q133.99-23.3 133.99-20.05L133.99-20.05Q133.99-18.1 132.89-13L132.89-13Q131.94-8.65 131.94-7.25L131.94-7.25Q131.94-5.25 133.39-5.25L133.39-5.25Q134.39-5.25 135.76-6.48 137.14-7.7 139.44-10.45L139.44-10.45Q140.04-11.15 140.79-11.15L140.79-11.15Q141.44-11.15 141.81-10.55 142.19-9.95 142.19-8.9L142.19-8.9Q142.19-6.9 141.24-5.8L141.24-5.8Q139.09-3.15 136.61-1.45 134.14 0.25 130.99 0.25L130.99 0.25Q128.44 0.25 127.14-1.23 125.84-2.7 125.84-5.5L125.84-5.5Q125.84-6.9 126.54-10.5L126.54-10.5Q127.19-13.65 127.19-14.85L127.19-14.85Q127.19-15.65 126.64-15.65L126.64-15.65Q125.99-15.65 124.81-13.98 123.64-12.3 122.41-9.55 121.19-6.8 120.44-3.75L120.44-3.75Q119.89-1.4 119.16-0.58 118.44 0.25 116.89 0.25L116.89 0.25ZM163.64-15.35Q164.29-15.35 164.64-14.7 164.99-14.05 164.99-13.05L164.99-13.05Q164.99-10.65 163.54-10.2L163.54-10.2Q160.54-9.15 156.94-9L156.94-9Q155.99-4.8 153.19-2.27 150.39 0.25 146.84 0.25L146.84 0.25Q143.84 0.25 141.71-1.2 139.59-2.65 138.49-5.05 137.39-7.45 137.39-10.25L137.39-10.25Q137.39-14.05 138.84-17.03 140.29-20 142.84-21.68 145.39-23.35 148.49-23.35L148.49-23.35Q152.29-23.35 154.61-20.73 156.94-18.1 157.34-14.25L157.34-14.25Q159.69-14.4 162.94-15.25L162.94-15.25Q163.34-15.35 163.64-15.35L163.64-15.35ZM147.24-5.05Q148.84-5.05 150.01-6.35 151.19-7.65 151.59-10.1L151.59-10.1Q150.04-11.15 149.21-12.85 148.39-14.55 148.39-16.45L148.39-16.45Q148.39-17.25 148.54-18.05L148.54-18.05 148.29-18.05Q146.29-18.05 144.96-16.13 143.64-14.2 143.64-10.7L143.64-10.7Q143.64-7.95 144.71-6.5 145.79-5.05 147.24-5.05L147.24-5.05ZM190.53 0.25Q186.08 0.25 182.51-1.75 178.93-3.75 176.83-7.63 174.73-11.5 174.73-16.9L174.73-16.9Q174.73-24.5 177.51-30.3 180.28-36.1 185.06-39.25 189.83-42.4 195.63-42.4L195.63-42.4Q200.08-42.4 203.66-40.4 207.23-38.4 209.33-34.52 211.43-30.65 211.43-25.25L211.43-25.25Q211.43-17.65 208.66-11.85 205.88-6.05 201.11-2.9 196.33 0.25 190.53 0.25L190.53 0.25ZM191.03-5.65Q194.93-5.65 197.91-8.05 200.88-10.45 202.48-14.73 204.08-19 204.08-24.4L204.08-24.4Q204.08-30.35 201.58-33.43 199.08-36.5 195.13-36.5L195.13-36.5Q191.28-36.5 188.33-34.13 185.38-31.75 183.73-27.48 182.08-23.2 182.08-17.75L182.08-17.75Q182.08-11.8 184.58-8.72 187.08-5.65 191.03-5.65L191.03-5.65ZM239.48-15.2Q239.63-15.25 239.98-15.25L239.98-15.25Q240.73-15.25 241.13-14.75 241.53-14.25 241.53-13.4L241.53-13.4Q241.53-11.85 240.93-10.98 240.33-10.1 239.13-9.7L239.13-9.7Q236.83-8.95 234.23-8.95L234.23-8.95Q232.03-8.95 230.08-9.55L230.08-9.55Q228.63-7.2 226.88-4.7L226.88-4.7Q224.88-1.85 223.43-0.8 221.98 0.25 220.13 0.25L220.13 0.25Q218.08 0.25 216.9-1.35 215.73-2.95 215.43-6.4L215.43-6.4Q214.83-13.4 214.83-18.65L214.83-18.65 214.83-20.4Q214.88-22.05 215.73-22.7 216.58-23.35 218.28-23.35L218.28-23.35Q219.58-23.35 220.2-22.78 220.83-22.2 220.83-20.85L220.83-20.85Q220.83-15.1 221.53-5.9L221.53-5.9Q224.53-10.35 226.03-13L226.03-13Q225.28-14.45 225.28-16.45L225.28-16.45Q225.28-18.15 226.03-19.75 226.78-21.35 228.08-22.35 229.38-23.35 231.03-23.35L231.03-23.35Q232.48-23.35 233.38-22.33 234.28-21.3 234.28-19.35L234.28-19.35Q234.28-17.1 233.08-14.2L233.08-14.2Q234.98-14.3 238.13-14.95L238.13-14.95 239.48-15.2ZM243.73-26.6Q241.63-26.6 240.58-27.58 239.53-28.55 239.53-30.3L239.53-30.3Q239.53-32.05 240.9-33.23 242.28-34.4 244.33-34.4L244.33-34.4Q246.18-34.4 247.33-33.5 248.48-32.6 248.48-30.95L248.48-30.95Q248.48-28.95 247.18-27.78 245.88-26.6 243.73-26.6L243.73-26.6ZM243.33 0.25Q240.08 0.25 238.6-2.05 237.13-4.35 237.13-8.15L237.13-8.15Q237.13-10.4 237.7-13.93 238.28-17.45 239.18-20.5L239.18-20.5Q239.63-22.1 240.38-22.7 241.13-23.3 242.78-23.3L242.78-23.3Q245.33-23.3 245.33-21.6L245.33-21.6Q245.33-20.35 244.38-15.8L244.38-15.8Q243.18-10.3 243.18-8.35L243.18-8.35Q243.18-6.85 243.58-6.05 243.98-5.25 244.93-5.25L244.93-5.25Q245.83-5.25 247.18-6.5 248.53-7.75 250.78-10.45L250.78-10.45Q251.38-11.15 252.13-11.15L252.13-11.15Q252.78-11.15 253.15-10.55 253.53-9.95 253.53-8.9L253.53-8.9Q253.53-6.9 252.58-5.8L252.58-5.8Q247.63 0.25 243.33 0.25L243.33 0.25ZM271.77-11.15Q272.42-11.15 272.8-10.55 273.17-9.95 273.17-8.9L273.17-8.9Q273.17-6.9 272.22-5.8L272.22-5.8Q270.37-3.55 267-1.65 263.62 0.25 259.77 0.25L259.77 0.25Q254.52 0.25 251.62-2.6 248.72-5.45 248.72-10.4L248.72-10.4Q248.72-13.85 250.17-16.82 251.62-19.8 254.2-21.55 256.77-23.3 260.02-23.3L260.02-23.3Q262.92-23.3 264.67-21.58 266.42-19.85 266.42-16.9L266.42-16.9Q266.42-13.45 263.95-10.98 261.47-8.5 255.57-7.05L255.57-7.05Q256.82-4.75 260.32-4.75L260.32-4.75Q262.57-4.75 265.45-6.33 268.32-7.9 270.42-10.45L270.42-10.45Q271.02-11.15 271.77-11.15L271.77-11.15ZM259.17-18.4Q257.32-18.4 256.05-16.25 254.77-14.1 254.77-11.05L254.77-11.05 254.77-10.95Q257.72-11.65 259.42-13.05 261.12-14.45 261.12-16.3L261.12-16.3Q261.12-17.25 260.6-17.82 260.07-18.4 259.17-18.4L259.17-18.4ZM297.27-11.15Q297.92-11.15 298.3-10.55 298.67-9.95 298.67-8.9L298.67-8.9Q298.67-6.9 297.72-5.8L297.72-5.8Q295.67-3.3 293.22-1.53 290.77 0.25 288.37 0.25L288.37 0.25Q284.57 0.25 282.57-4.2L282.57-4.2Q280.47-1.55 278.9-0.65 277.32 0.25 275.22 0.25L275.22 0.25Q272.17 0.25 270.2-2.02 268.22-4.3 268.22-7.95L268.22-7.95Q268.22-11.95 269.92-15.38 271.62-18.8 274.6-20.98 277.57-23.15 281.27-23.55L281.27-23.55Q282.22-33.25 284.9-40.13 287.57-47 291.92-47L291.92-47Q294.07-47 295.5-45.05 296.92-43.1 296.92-39.15L296.92-39.15Q296.92-33.55 294.17-26.05 291.42-18.55 286.82-10.65L286.82-10.65Q287.02-7.75 287.7-6.5 288.37-5.25 289.42-5.25L289.42-5.25Q290.77-5.25 292.17-6.45 293.57-7.65 295.92-10.45L295.92-10.45Q296.52-11.15 297.27-11.15L297.27-11.15ZM291.37-42.1Q290.42-42.1 289.47-38.73 288.52-35.35 287.85-29.9 287.17-24.45 286.87-18.5L286.87-18.5Q292.47-30.7 292.47-38.1L292.47-38.1Q292.47-40 292.15-41.05 291.82-42.1 291.37-42.1L291.37-42.1ZM276.97-4.8Q277.92-4.8 278.87-5.58 279.82-6.35 281.27-8.45L281.27-8.45Q280.77-11.15 280.77-14.5L280.77-14.5Q280.77-15.7 280.87-18.4L280.87-18.4Q278.12-17.55 276.3-14.73 274.47-11.9 274.47-8.45L274.47-8.45Q274.47-4.8 276.97-4.8L276.97-4.8ZM320.12-15.35Q320.77-15.35 321.12-14.7 321.47-14.05 321.47-13.05L321.47-13.05Q321.47-10.65 320.02-10.2L320.02-10.2Q317.02-9.15 313.42-9L313.42-9Q312.47-4.8 309.67-2.27 306.87 0.25 303.32 0.25L303.32 0.25Q300.32 0.25 298.19-1.2 296.07-2.65 294.97-5.05 293.87-7.45 293.87-10.25L293.87-10.25Q293.87-14.05 295.32-17.03 296.77-20 299.32-21.68 301.87-23.35 304.97-23.35L304.97-23.35Q308.77-23.35 311.09-20.73 313.42-18.1 313.82-14.25L313.82-14.25Q316.17-14.4 319.42-15.25L319.42-15.25Q319.82-15.35 320.12-15.35L320.12-15.35ZM303.72-5.05Q305.32-5.05 306.49-6.35 307.67-7.65 308.07-10.1L308.07-10.1Q306.52-11.15 305.69-12.85 304.87-14.55 304.87-16.45L304.87-16.45Q304.87-17.25 305.02-18.05L305.02-18.05 304.77-18.05Q302.77-18.05 301.44-16.13 300.12-14.2 300.12-10.7L300.12-10.7Q300.12-7.95 301.19-6.5 302.27-5.05 303.72-5.05L303.72-5.05Z" opacity="1" transform="matrix(1,0,0,1,0,0)" fill="#ffffff" class="undefined-text-0" data-fill-palette-color="primary" id="text-0"></path></svg></g></svg></g></svg></g></svg></g><g></g></svg></g></svg></g></svg></g></svg></g><defs></defs></svg><rect width="512" height="320" fill="none" stroke="none" visibility="hidden"></rect></g></svg></g></svg>